<svg width="14" height="16" viewBox="0 0 14 16" fill="none" xmlns="http://www.w3.org/2000/svg">
<g id="padlock-decoration">
<path id="Vector" d="M6.46107 8.17064C4.1683 8.17064 2.30298 6.41653 2.30298 4.26037C2.30298 2.10427 4.1683 0.350159 6.46107 0.350159C8.75384 0.350159 10.6192 2.10427 10.6192 4.26037C10.6192 6.41653 8.75384 8.17064 6.46107 8.17064ZM6.46107 1.33817C4.78369 1.33817 3.41905 2.64905 3.41905 4.26037C3.41905 5.87168 4.78369 7.18262 6.46107 7.18262C8.13844 7.18262 9.50308 5.87168 9.50308 4.26037C9.50308 2.64905 8.13844 1.33817 6.46107 1.33817Z" fill="#00BFA6"/>
<path id="Vector_2" d="M6.47027 8.07737C4.17242 8.07737 2.30298 6.26563 2.30298 4.03865C2.30298 1.81173 4.17242 0 6.47027 0C8.76811 0 10.6376 1.81173 10.6376 4.03865C10.6376 6.26563 8.76811 8.07737 6.47027 8.07737ZM6.47027 1.02047C4.78918 1.02047 3.42152 2.37441 3.42152 4.03865C3.42152 5.70289 4.78918 7.0569 6.47027 7.0569C8.15135 7.0569 9.51901 5.70289 9.51901 4.03865C9.51901 2.37441 8.15135 1.02047 6.47027 1.02047Z" fill="#00BFA6"/>
<path id="Vector_3" d="M10.5177 16H2.62516C1.92917 15.9993 1.2619 15.7468 0.769759 15.2978C0.277614 14.8488 0.000782933 14.24 0 13.605V6.54211C0.000535699 6.10739 0.190059 5.69061 0.526992 5.38321C0.863925 5.07582 1.32075 4.9029 1.79725 4.9024H11.3456C11.8221 4.9029 12.2789 5.07582 12.6159 5.38321C12.9528 5.69061 13.1423 6.10739 13.1429 6.54211V13.605C13.1421 14.24 12.8652 14.8488 12.3731 15.2978C11.881 15.7468 11.2137 15.9993 10.5177 16Z" fill="white"/>
<path id="Vector_4" d="M8.06567 9.57487C8.06588 9.32544 7.99321 9.08047 7.85514 8.86519C7.71707 8.64991 7.51859 8.47209 7.28015 8.35006C7.04171 8.22803 6.77192 8.16619 6.49858 8.17091C6.22523 8.17563 5.9582 8.24673 5.72499 8.37691C5.49178 8.50709 5.30082 8.69163 5.17178 8.91152C5.04274 9.13142 4.98028 9.37872 4.99083 9.62796C5.00139 9.8772 5.08457 10.1194 5.23182 10.3295C5.37907 10.5397 5.58507 10.7102 5.82859 10.8236V13.0189H7.22676V10.8236C7.47918 10.7062 7.69112 10.5275 7.83917 10.3071C7.98722 10.0868 8.0656 9.83334 8.06567 9.57487Z" fill="white"/>
<path id="Vector_5" d="M8.06567 9.57487C8.06588 9.32544 7.99321 9.08047 7.85514 8.86519C7.71707 8.64991 7.51859 8.47209 7.28015 8.35006C7.04171 8.22803 6.77192 8.16619 6.49858 8.17091C6.22523 8.17563 5.9582 8.24673 5.72499 8.37691C5.49178 8.50709 5.30082 8.69163 5.17178 8.91152C5.04274 9.13142 4.98028 9.37872 4.99083 9.62796C5.00139 9.8772 5.08457 10.1194 5.23182 10.3295C5.37907 10.5397 5.58507 10.7102 5.82859 10.8236V13.0189H7.22676V10.8236C7.47918 10.7062 7.69112 10.5275 7.83917 10.3071C7.98722 10.0868 8.0656 9.83334 8.06567 9.57487Z" fill="#2F2E41"/>
</g>
</svg>
